<mxfile host="app.diagrams.net" modified="2023-08-18T03:14:28.053Z" agent="Mozilla/5.0 (Macintosh; Intel Mac OS X 10_15_7) AppleWebKit/537.36 (KHTML, like Gecko) Chrome/115.0.0.0 Safari/537.36" etag="q5wnk2WxUH44j08cDgHC" version="21.6.8" type="github">
  <diagram name="第 1 页" id="prxXN120mgdLXzcwhEjI">
    <mxGraphModel dx="1051" dy="650" grid="1" gridSize="10" guides="1" tooltips="1" connect="1" arrows="1" fold="1" page="1" pageScale="1" pageWidth="827" pageHeight="1169" math="0" shadow="0">
      <root>
        <mxCell id="0" />
        <mxCell id="1" parent="0" />
        <mxCell id="0kdH19cf69ulMLS0QSHI-5" value="" style="rounded=1;whiteSpace=wrap;html=1;" vertex="1" parent="1">
          <mxGeometry x="56" y="120" width="170" height="300" as="geometry" />
        </mxCell>
        <mxCell id="0kdH19cf69ulMLS0QSHI-6" value="&lt;b style=&quot;font-size: 17px;&quot;&gt;数据采集&lt;/b&gt;" style="text;html=1;strokeColor=none;fillColor=none;align=center;verticalAlign=middle;whiteSpace=wrap;rounded=0;fontSize=17;" vertex="1" parent="1">
          <mxGeometry x="100" y="130" width="80" height="30" as="geometry" />
        </mxCell>
        <mxCell id="0kdH19cf69ulMLS0QSHI-7" value="学位论文全文" style="rounded=1;whiteSpace=wrap;html=1;fontSize=14;" vertex="1" parent="1">
          <mxGeometry x="80" y="193" width="120" height="60" as="geometry" />
        </mxCell>
        <mxCell id="0kdH19cf69ulMLS0QSHI-9" value="学位论文题录信息" style="rounded=1;whiteSpace=wrap;html=1;fontSize=14;" vertex="1" parent="1">
          <mxGeometry x="80" y="313" width="120" height="60" as="geometry" />
        </mxCell>
        <mxCell id="0kdH19cf69ulMLS0QSHI-10" style="edgeStyle=orthogonalEdgeStyle;rounded=0;orthogonalLoop=1;jettySize=auto;html=1;exitX=0.5;exitY=1;exitDx=0;exitDy=0;" edge="1" parent="1" source="0kdH19cf69ulMLS0QSHI-5" target="0kdH19cf69ulMLS0QSHI-5">
          <mxGeometry relative="1" as="geometry" />
        </mxCell>
        <mxCell id="0kdH19cf69ulMLS0QSHI-11" style="edgeStyle=orthogonalEdgeStyle;rounded=0;orthogonalLoop=1;jettySize=auto;html=1;exitX=0.5;exitY=1;exitDx=0;exitDy=0;" edge="1" parent="1" source="0kdH19cf69ulMLS0QSHI-5" target="0kdH19cf69ulMLS0QSHI-5">
          <mxGeometry relative="1" as="geometry" />
        </mxCell>
        <mxCell id="0kdH19cf69ulMLS0QSHI-13" value="" style="rounded=1;whiteSpace=wrap;html=1;" vertex="1" parent="1">
          <mxGeometry x="294" y="120" width="170" height="300" as="geometry" />
        </mxCell>
        <mxCell id="0kdH19cf69ulMLS0QSHI-14" value="&lt;b style=&quot;font-size: 17px;&quot;&gt;数据清洗&lt;/b&gt;" style="text;html=1;strokeColor=none;fillColor=none;align=center;verticalAlign=middle;whiteSpace=wrap;rounded=0;fontSize=17;" vertex="1" parent="1">
          <mxGeometry x="339" y="130" width="80" height="30" as="geometry" />
        </mxCell>
        <mxCell id="0kdH19cf69ulMLS0QSHI-22" style="edgeStyle=orthogonalEdgeStyle;rounded=0;orthogonalLoop=1;jettySize=auto;html=1;exitX=0.5;exitY=1;exitDx=0;exitDy=0;entryX=0.5;entryY=0;entryDx=0;entryDy=0;" edge="1" parent="1" source="0kdH19cf69ulMLS0QSHI-15" target="0kdH19cf69ulMLS0QSHI-16">
          <mxGeometry relative="1" as="geometry" />
        </mxCell>
        <mxCell id="0kdH19cf69ulMLS0QSHI-15" value="筛选学位授予年份" style="rounded=1;whiteSpace=wrap;html=1;fontSize=14;" vertex="1" parent="1">
          <mxGeometry x="319" y="173" width="120" height="60" as="geometry" />
        </mxCell>
        <mxCell id="0kdH19cf69ulMLS0QSHI-23" style="edgeStyle=orthogonalEdgeStyle;rounded=0;orthogonalLoop=1;jettySize=auto;html=1;exitX=0.5;exitY=1;exitDx=0;exitDy=0;entryX=0.5;entryY=0;entryDx=0;entryDy=0;" edge="1" parent="1" source="0kdH19cf69ulMLS0QSHI-16" target="0kdH19cf69ulMLS0QSHI-17">
          <mxGeometry relative="1" as="geometry" />
        </mxCell>
        <mxCell id="0kdH19cf69ulMLS0QSHI-16" value="筛选文本相关度" style="rounded=1;whiteSpace=wrap;html=1;fontSize=14;" vertex="1" parent="1">
          <mxGeometry x="319" y="253" width="120" height="60" as="geometry" />
        </mxCell>
        <mxCell id="0kdH19cf69ulMLS0QSHI-17" value="获得内容分析样本" style="rounded=1;whiteSpace=wrap;html=1;fontSize=14;" vertex="1" parent="1">
          <mxGeometry x="319" y="333" width="120" height="60" as="geometry" />
        </mxCell>
        <mxCell id="0kdH19cf69ulMLS0QSHI-18" style="edgeStyle=orthogonalEdgeStyle;rounded=0;orthogonalLoop=1;jettySize=auto;html=1;exitX=0.5;exitY=1;exitDx=0;exitDy=0;" edge="1" parent="1" source="0kdH19cf69ulMLS0QSHI-13" target="0kdH19cf69ulMLS0QSHI-13">
          <mxGeometry relative="1" as="geometry" />
        </mxCell>
        <mxCell id="0kdH19cf69ulMLS0QSHI-19" style="edgeStyle=orthogonalEdgeStyle;rounded=0;orthogonalLoop=1;jettySize=auto;html=1;exitX=0.5;exitY=1;exitDx=0;exitDy=0;" edge="1" parent="1" source="0kdH19cf69ulMLS0QSHI-13" target="0kdH19cf69ulMLS0QSHI-13">
          <mxGeometry relative="1" as="geometry" />
        </mxCell>
        <mxCell id="0kdH19cf69ulMLS0QSHI-21" value="➕" style="text;strokeColor=none;align=center;fillColor=none;html=1;verticalAlign=middle;whiteSpace=wrap;rounded=0;fontSize=21;labelBackgroundColor=none;labelBorderColor=none;fontColor=#908e8e;glass=0;shadow=0;" vertex="1" parent="1">
          <mxGeometry x="110" y="268" width="60" height="30" as="geometry" />
        </mxCell>
        <mxCell id="0kdH19cf69ulMLS0QSHI-25" value="" style="rounded=1;whiteSpace=wrap;html=1;" vertex="1" parent="1">
          <mxGeometry x="530" y="120" width="330" height="300" as="geometry" />
        </mxCell>
        <mxCell id="0kdH19cf69ulMLS0QSHI-51" value="" style="rounded=0;whiteSpace=wrap;html=1;dashed=1;dashPattern=12 12;fillColor=none;glass=0;shadow=1;" vertex="1" parent="1">
          <mxGeometry x="550" y="173" width="140" height="217" as="geometry" />
        </mxCell>
        <mxCell id="0kdH19cf69ulMLS0QSHI-26" value="&lt;b style=&quot;font-size: 17px;&quot;&gt;内容分析&lt;/b&gt;" style="text;html=1;strokeColor=none;fillColor=none;align=center;verticalAlign=middle;whiteSpace=wrap;rounded=0;fontSize=17;" vertex="1" parent="1">
          <mxGeometry x="655" y="130" width="80" height="30" as="geometry" />
        </mxCell>
        <mxCell id="0kdH19cf69ulMLS0QSHI-48" value="" style="edgeStyle=orthogonalEdgeStyle;rounded=0;orthogonalLoop=1;jettySize=auto;html=1;" edge="1" parent="1" source="0kdH19cf69ulMLS0QSHI-28" target="0kdH19cf69ulMLS0QSHI-47">
          <mxGeometry relative="1" as="geometry" />
        </mxCell>
        <mxCell id="0kdH19cf69ulMLS0QSHI-28" value="确定一级编码框架" style="rounded=1;whiteSpace=wrap;html=1;fontSize=14;" vertex="1" parent="1">
          <mxGeometry x="560" y="212" width="120" height="43" as="geometry" />
        </mxCell>
        <mxCell id="0kdH19cf69ulMLS0QSHI-32" style="edgeStyle=orthogonalEdgeStyle;rounded=0;orthogonalLoop=1;jettySize=auto;html=1;exitX=0.5;exitY=1;exitDx=0;exitDy=0;" edge="1" parent="1" source="0kdH19cf69ulMLS0QSHI-25" target="0kdH19cf69ulMLS0QSHI-25">
          <mxGeometry relative="1" as="geometry" />
        </mxCell>
        <mxCell id="0kdH19cf69ulMLS0QSHI-33" style="edgeStyle=orthogonalEdgeStyle;rounded=0;orthogonalLoop=1;jettySize=auto;html=1;exitX=0.5;exitY=1;exitDx=0;exitDy=0;" edge="1" parent="1" source="0kdH19cf69ulMLS0QSHI-25" target="0kdH19cf69ulMLS0QSHI-25">
          <mxGeometry relative="1" as="geometry" />
        </mxCell>
        <mxCell id="0kdH19cf69ulMLS0QSHI-50" value="" style="edgeStyle=orthogonalEdgeStyle;rounded=0;orthogonalLoop=1;jettySize=auto;html=1;" edge="1" parent="1" source="0kdH19cf69ulMLS0QSHI-47" target="0kdH19cf69ulMLS0QSHI-49">
          <mxGeometry relative="1" as="geometry" />
        </mxCell>
        <mxCell id="0kdH19cf69ulMLS0QSHI-47" value="半开放式编码" style="rounded=1;whiteSpace=wrap;html=1;fontSize=14;" vertex="1" parent="1">
          <mxGeometry x="560" y="275" width="120" height="43" as="geometry" />
        </mxCell>
        <mxCell id="0kdH19cf69ulMLS0QSHI-49" value="细粒度人工理解" style="rounded=1;whiteSpace=wrap;html=1;fontSize=14;" vertex="1" parent="1">
          <mxGeometry x="560" y="335" width="120" height="43" as="geometry" />
        </mxCell>
        <mxCell id="0kdH19cf69ulMLS0QSHI-52" value="&lt;font style=&quot;font-size: 15px;&quot;&gt;手工编码&lt;/font&gt;" style="text;html=1;strokeColor=none;fillColor=none;align=center;verticalAlign=middle;whiteSpace=wrap;rounded=0;fontStyle=1;fontSize=15;" vertex="1" parent="1">
          <mxGeometry x="580" y="179" width="80" height="30" as="geometry" />
        </mxCell>
        <mxCell id="0kdH19cf69ulMLS0QSHI-53" style="edgeStyle=orthogonalEdgeStyle;shape=flexArrow;rounded=0;orthogonalLoop=1;jettySize=auto;html=1;exitX=1.01;exitY=0.541;exitDx=0;exitDy=0;entryX=0;entryY=0.5;entryDx=0;entryDy=0;shadow=1;strokeWidth=0.5;exitPerimeter=0;" edge="1" parent="1">
          <mxGeometry relative="1" as="geometry">
            <mxPoint x="464" y="282.44" as="sourcePoint" />
            <mxPoint x="531" y="282.88" as="targetPoint" />
          </mxGeometry>
        </mxCell>
        <mxCell id="0kdH19cf69ulMLS0QSHI-54" style="edgeStyle=orthogonalEdgeStyle;shape=flexArrow;rounded=0;orthogonalLoop=1;jettySize=auto;html=1;exitX=1.01;exitY=0.541;exitDx=0;exitDy=0;entryX=0;entryY=0.5;entryDx=0;entryDy=0;shadow=1;strokeWidth=0.5;exitPerimeter=0;" edge="1" parent="1">
          <mxGeometry relative="1" as="geometry">
            <mxPoint x="226" y="282.44" as="sourcePoint" />
            <mxPoint x="293" y="282.88" as="targetPoint" />
          </mxGeometry>
        </mxCell>
        <mxCell id="0kdH19cf69ulMLS0QSHI-55" value="" style="rounded=0;whiteSpace=wrap;html=1;dashed=1;dashPattern=12 12;fillColor=none;glass=0;shadow=1;" vertex="1" parent="1">
          <mxGeometry x="700" y="173" width="140" height="217" as="geometry" />
        </mxCell>
        <mxCell id="0kdH19cf69ulMLS0QSHI-56" value="" style="edgeStyle=orthogonalEdgeStyle;rounded=0;orthogonalLoop=1;jettySize=auto;html=1;" edge="1" parent="1" source="0kdH19cf69ulMLS0QSHI-57" target="0kdH19cf69ulMLS0QSHI-59">
          <mxGeometry relative="1" as="geometry" />
        </mxCell>
        <mxCell id="0kdH19cf69ulMLS0QSHI-57" value="命名实体提取" style="rounded=1;whiteSpace=wrap;html=1;fontSize=14;" vertex="1" parent="1">
          <mxGeometry x="710" y="212" width="120" height="43" as="geometry" />
        </mxCell>
        <mxCell id="0kdH19cf69ulMLS0QSHI-58" value="" style="edgeStyle=orthogonalEdgeStyle;rounded=0;orthogonalLoop=1;jettySize=auto;html=1;" edge="1" parent="1" source="0kdH19cf69ulMLS0QSHI-59" target="0kdH19cf69ulMLS0QSHI-60">
          <mxGeometry relative="1" as="geometry" />
        </mxCell>
        <mxCell id="0kdH19cf69ulMLS0QSHI-59" value="标签统计分析" style="rounded=1;whiteSpace=wrap;html=1;fontSize=14;" vertex="1" parent="1">
          <mxGeometry x="710" y="275" width="120" height="43" as="geometry" />
        </mxCell>
        <mxCell id="0kdH19cf69ulMLS0QSHI-60" value="整体性关联理解" style="rounded=1;whiteSpace=wrap;html=1;fontSize=14;" vertex="1" parent="1">
          <mxGeometry x="710" y="335" width="120" height="43" as="geometry" />
        </mxCell>
        <mxCell id="0kdH19cf69ulMLS0QSHI-61" value="&lt;font style=&quot;font-size: 15px;&quot;&gt;自然语言处理&lt;/font&gt;" style="text;html=1;strokeColor=none;fillColor=none;align=center;verticalAlign=middle;whiteSpace=wrap;rounded=0;fontStyle=1;fontSize=15;" vertex="1" parent="1">
          <mxGeometry x="720" y="179" width="100" height="30" as="geometry" />
        </mxCell>
      </root>
    </mxGraphModel>
  </diagram>
</mxfile>
